Coordinates
version=1
nRows=13
nColumns=22
inDegrees=yes

Units are S.I. units (second, meters, Newtons, ...)
If the header above contains a line with 'inDegrees', this indicates whether rotational values are in degrees (yes) or radians (no).

endheader
time	pelvis_tilt	pelvis_list	pelvis_rotation	pelvis_tx	pelvis_ty	pelvis_tz	hip_flexion_r	hip_adduction_r	hip_rotation_r	knee_angle_r	ankle_angle_r	subtalar_angle_r	hip_flexion_l	hip_adduction_l	hip_rotation_l	knee_angle_l	ankle_angle_l	subtalar_angle_l	lumbar_extension	lumbar_bending	lumbar_rotation
      2.41000000	     -9.49486919	      4.26497056	    -10.19446546	      0.46990425	      0.90764827	      0.36758156	     46.15439021	     -3.67884675	      3.65167138	    -80.93660449	     17.58990319	     -6.75223996	     36.86461418	      5.46403208	     -8.23225390	    -51.64333880	     29.57638932	     -6.53404273	     -9.67249100	     -1.21313977	      5.07277195
      2.42000000	     -9.21079818	      4.59536603	     -9.59983517	      0.48813378	      0.90808175	      0.36878421	     48.01442960	     -4.73997218	      3.06883485	    -79.50702381	     18.08039239	     -7.06154992	     35.17516350	      6.23363742	     -8.09231336	    -51.26011553	     30.52549026	     -6.47932551	     -9.84323803	     -1.36741933	      3.94366502
      2.43000000	     -8.92218139	      4.88448127	     -8.95618762	      0.50663194	      0.90872933	      0.37003932	     49.62093779	     -5.82080823	      2.33159964	    -77.62410535	     18.43930161	     -7.28278039	     33.37557636	      6.99357802	     -7.80711275	    -50.74875796	     31.39878958	     -6.42905606	     -9.98543606	     -1.48810039	      2.79986757
      2.44000000	     -8.64073144	      5.13293731	     -8.26712651	      0.52541546	      0.90957391	      0.37133833	     50.96894640	     -6.91484512	      1.43680254	    -75.30876105	     18.65633331	     -7.37222607	     31.47757507	      7.73199067	     -7.38039080	    -50.11100262	     32.18391542	     -6.38049511	    -10.08346393	     -1.56792959	      1.63828422
      2.45000000	     -8.37172641	      5.33654961	     -7.54927308	      0.54447798	      0.91060205	      0.37272547	     52.05424136	     -7.99240594	      0.39274263	    -72.58478707	     18.68708097	     -7.29764105	     29.48586806	      8.42079664	     -6.83298797	    -49.34619896	     32.87223943	     -6.33385082	    -10.13094562	     -1.60318280	      0.45213480
      2.46000000	     -8.06782081	      5.46637961	     -6.84911964	      0.56385045	      0.91190020	      0.37428166	     52.80704134	     -8.99082804	     -0.79301498	    -69.46035231	     18.48282945	     -6.94378853	     27.33677106	      9.00428392	     -6.20225428	    -48.44153018	     33.50558453	     -6.31702887	    -10.18580221	     -1.57199856	     -0.68346705
      2.47000000	     -7.81860587	      5.55399710	     -6.14876969	      0.58349591	      0.91325807	      0.37599182	     53.33876094	     -9.91261095	     -2.09391443	    -65.98011269	     17.95652014	     -6.21597650	     25.14906848	      9.49275502	     -5.50700206	    -47.42098597	     34.02350395	     -6.27286374	    -10.13200455	     -1.49536764	     -1.84008195
      2.48000000	     -7.59435919	      5.58883411	     -5.47794748	      0.60342322	      0.91469946	      0.37791837	     53.61451315	    -10.71815252	     -3.49625902	    -62.16697395	     17.03080224	     -5.05550544	     22.89425924	      9.85403276	     -4.79343546	    -46.28477456	     34.43202428	     -6.19070259	    -10.00827630	     -1.37090325	     -2.95378590
      2.49000000	     -7.39175709	      5.57561863	     -4.86026154	      0.62367197	      0.91617581	      0.38012961	     53.63989928	    -11.37850218	     -4.97115426	    -58.06563099	     15.64722133	     -3.35709040	     20.58127688	     10.07185116	     -4.11026186	    -45.04980281	     34.70033316	     -6.04536102	     -9.80951388	     -1.21142012	     -3.99881628
      2.50000000	     -7.20167969	      5.51370549	     -4.30722628	      0.64424497	      0.91762649	      0.38266004	     53.42015991	    -11.87234906	     -6.49508698	    -53.73515545	     13.76883700	     -1.13255532	     18.22330689	     10.13905553	     -3.48448175	    -43.74569979	     34.84434246	     -5.80226976	     -9.54327034	     -1.02167754	     -4.94024559
      2.51000000	     -7.02205338	      5.42052627	     -3.83418196	      0.66517559	      0.91897521	      0.38558645	     52.98231366	    -12.18611116	     -8.00857900	    -49.26197816	     11.42557080	      1.68265643	     15.84867793	     10.06143624	     -2.96312245	    -42.41712973	     34.82355726	     -5.42644610	     -9.20460756	     -0.83345515	     -5.77133226
      2.52000000	     -6.84753492	      5.30665254	     -3.43756845	      0.68644557	      0.92014164	      0.38891225	     52.36022358	    -12.32582120	     -9.46150039	    -44.76038296	      8.70512935	      5.04741052	     13.49375389	      9.86173791	     -2.54201570	    -41.12934274	     34.61568256	     -4.88833758	     -8.80125111	     -0.66164263	     -6.47973923
      2.53000000	     -6.69524863	      5.18289627	     -3.10887059	      0.70804241	      0.92101291	      0.39263272	     51.62233796	    -12.30988535	    -10.80630813	    -40.38089438	      5.77983453	      8.87372226	     11.22854025	      9.56201241	     -2.21756157	    -39.97229567	     34.19064040	     -4.17463976	     -8.31237792	     -0.51967483	     -7.06493756
